# xmcd CD Database Entry
#
# Track frame offsets:
# 150
# 13454
# 24764
# 35026
# 47089
# 57451
# 67227
# 77137
# 88550
# 100766
# 110396
# 121222
# 131082
# 143418
# 154391
# 165878
# 180035
# 190640
# 201975
# 216021
#
# Disc length: 3034 seconds
#
# Revision: 1
# Processed by: cddbd v1.4PL0 Copyright (c) Steve Scherf et al.
# Submitted via: tcd 2.0b
#
DISCID=0c0bd814
DTITLE=Little Willie John - Fever
DYEAR=1900
DGENRE=
TTITLE0=All Around The World
TTITLE1=Suffering With The Blues
TTITLE2=Need Your Love So Bad
TTITLE3=If I Thought You Needed Me
TTITLE4=Let's Rock While the Rockin's Good
TTITLE5=Are You Ever Coming Back
TTITLE6=Person to Person
TTITLE7=Drive Me Home
TTITLE8=Fever
TTITLE9=Uh Uh Baby
TTITLE10=Like Boy, Like Girl
TTITLE11=Look What You've Done To Me
TTITLE12=Talk to Me, Talk to Me
TTITLE13=My Baby's In Love With Another Guy
TTITLE14=Bo-Da-Ley Didd-Ley
TTITLE15=Inside Information
TTITLE16=Rock Love
TTITLE17=Why Don't You Haul Off and Love Me
TTITLE18=You Hurt Me
TTITLE19=Leave My Kitten alone
EXTD=
EXTT0=
EXTT1=
EXTT2=
EXTT3=
EXTT4=
EXTT5=
EXTT6=
EXTT7=
EXTT8=
EXTT9=
EXTT10=
EXTT11=
EXTT12=
EXTT13=
EXTT14=
EXTT15=
EXTT16=
EXTT17=
EXTT18=
EXTT19=
PLAYORDER=
